<?xml version="1.0" encoding="utf-8"?>
<!-- Generator: Adobe Illustrator 26.5.0, SVG Export Plug-In . SVG Version: 6.00 Build 0)  -->
<svg version="1.1" id="Layer_1" xmlns="http://www.w3.org/2000/svg" xmlns:xlink="http://www.w3.org/1999/xlink" x="0px" y="0px"
	 viewBox="0 0 172 28" style="enable-background:new 0 0 172 28;" xml:space="preserve">
<style type="text/css">
	.st0{fill:#E00000;}
	.st1{fill:#BE0000;}
	.st2{fill:#FFFFFF;}
	.st3{fill:#333333;}
	.st4{fill:#000001;}
	.st5{fill:#1B1B1B;}
</style>
<g>
	<g>
		<rect x="46.8" y="0.2" class="st0" width="66.6" height="27.7"/>
	</g>
	<g>
		<path class="st1" d="M46.8,14.5v13.2h66.6V11.9C91.8,12.6,68.6,13.4,46.8,14.5"/>
	</g>
	<g>
		<path class="st2" d="M122.4,6.2h1.4c0.7,0,0.9-0.2,0.9-0.9V3.9c0-0.7-0.2-0.9-0.9-0.9h-1.4c-0.7,0-0.9,0.2-0.9,0.9v1.4
			C121.5,6,121.6,6.2,122.4,6.2"/>
	</g>
	<g>
		<path class="st3" d="M16.5,16.5c0,2.2-1.4,3.8-4.3,4.1c-2.1,0.2-5.1,0-6.6-0.2c0-0.2-0.1-0.5-0.1-0.8c0-1.9,1-2.3,2-2.3
			c1,0,2.6,0.2,3.8,0.2c1.3,0,1.7-0.4,1.7-0.9c0-0.5-0.5-0.8-1.5-1l-2.7-0.5c-2.3-0.4-3.5-2-3.5-3.7c0-2,1.4-3.7,4.3-4.1
			c2.1-0.2,4.8,0,6.2,0.2c0,0.2,0.1,0.5,0.1,0.7c0,1.9-1,2.3-2,2.3c-0.7,0-1.9-0.1-3.2-0.1c-1.3,0-1.9,0.4-1.9,0.8
			c0,0.5,0.5,0.7,1.4,0.8l2.6,0.5C15.4,13,16.5,14.6,16.5,16.5 M21.2,18.8c0,1.2-0.5,1.8-2.7,1.8c-0.3,0-0.6,0-0.8-0.1V5.1
			c0-1.2,0.4-2.4,2.7-2.4c0.3,0,0.6,0,0.9,0.1V18.8z M30.6,24.8c0.3,0.2,0.9,0.3,1.7,0.4c1.3,0,2-0.5,2.6-1.7l7.1-15.9
			c-0.3-0.2-0.9-0.3-1.5-0.3c-0.9,0-2.1,0.2-2.9,2l-2.3,5.4l-4.5-7.3c-0.3-0.1-1-0.2-1.5-0.2c-1.6,0-2.5,0.6-3.4,1.6l-4.4,4.8
			l3.5,5.6c0.7,1,1.5,1.5,2.9,1.5c0.9,0,1.7-0.2,2-0.4l-4.3-6.4l3-3.2l4.9,7.8L30.6,24.8z"/>
	</g>
	<g>
		<path class="st4" d="M31.5,15.2l2,3.2l-3,6.3c0.3,0.2,0.9,0.3,1.7,0.4c1.3,0,2-0.5,2.6-1.7l3.9-8.6C36.3,15,33.9,15.1,31.5,15.2"
			/>
	</g>
	<g>
		<path class="st4" d="M24.9,19.1c0.7,1,1.5,1.5,2.9,1.5c0.9,0,1.7-0.2,2-0.4l-3.2-4.8c-1.3,0.1-2.6,0.2-3.9,0.2L24.9,19.1z"/>
	</g>
	<g>
		<path class="st4" d="M12.2,20.5c2.9-0.3,4.3-1.9,4.3-4.1c0-0.1,0-0.2,0-0.3c-1.2,0.1-2.4,0.2-3.6,0.2c0,0,0,0.1,0,0.2
			c0,0.4-0.4,0.9-1.7,0.9c-1.2,0-2.8-0.2-3.8-0.2c-1,0-2,0.4-2,2.3c0,0.2,0,0.5,0.1,0.8C7.1,20.5,10.1,20.8,12.2,20.5"/>
	</g>
	<g>
		<path class="st4" d="M21.2,18.8v-2.9c-1.2,0.1-2.4,0.2-3.6,0.2v4.5c0.3,0,0.5,0.1,0.8,0.1C20.8,20.6,21.2,20,21.2,18.8"/>
	</g>
	<g>
		<path class="st5" d="M131.6,21.6h-1.4c-0.7,0-0.9,0.2-0.9,0.9v1.4c0,0.7,0.2,0.9,0.9,0.9h1.4c0.7,0,0.9-0.2,0.9-0.9v-1.4
			C132.5,21.8,132.3,21.6,131.6,21.6"/>
	</g>
	<g>
		<path class="st5" d="M136,21.6h-1.4c-0.7,0-0.9,0.2-0.9,0.9v1.4c0,0.7,0.1,0.9,0.9,0.9h1.4c0.7,0,0.9-0.2,0.9-0.9v-1.4
			C136.9,21.8,136.7,21.6,136,21.6"/>
	</g>
	<g>
		<path class="st5" d="M142.1,21.6h-1.4c-0.7,0-0.9,0.2-0.9,0.9v1.4c0,0.7,0.2,0.9,0.9,0.9h1.4c0.7,0,0.9-0.2,0.9-0.9v-1.4
			C143,21.8,142.9,21.6,142.1,21.6"/>
	</g>
	<g>
		<path class="st3" d="M132,16.2c-0.6,0-0.8-0.1-0.9-0.6v-5.2c0-2.6-2.5-2.5-2.5-2.5H124c0,0-4.9-0.3-5.4,5.3
			c-0.5,6.2,5.9,6.3,5.9,6.3h10.9h1.9c1.5,0,1.5-0.9,1.5-1c0,1.1,1.2,1,1.2,1h4c2.2,0,2.5-2.1,2.5-2.1V7.9c-3.4,0-3.4,2.5-3.4,2.5
			v5.8l-3.4,0c-0.7,0-0.9-0.1-0.9-0.7V7.9c-2.9,0-3.3,1.7-3.3,2.3v6L132,16.2z M127.4,18.4c0-0.7-0.1-1-0.3-1.3
			c-0.7-1.4-2.3-0.8-3.3-1c-0.5-0.1-1.8-0.5-1.9-2.2c-0.1-2.6,2.3-2.7,2.3-2.7h3.1L127.4,18.4z"/>
	</g>
	<g>
		<path class="st3" d="M150.7,19.4c-0.3,2.1-2.1,2.1-2.1,2.1c-3.6,0.1-2.9,3.2-2.9,3.2c2,0.2,4.8,0,6.5-1.2c1.7-1.2,1.9-4,1.9-4
			l10.1,0h2.5c0-3.5-2.5-3.4-2.5-3.4l-1.8,0c-2.3,0-2.2-2.6-2.2-2.6c0-3.4,3.6-1.8,5.3-2.5c1.7-0.7,1.3-3.2,1.3-3.2h-5.5
			c-3,0-5.1,2.7-4.8,5.7c0.2,1.9,0.7,2.6,0.7,2.6h-2.6c-0.3-0.1-0.4-0.3-0.4-0.9V7.9c-3.5,0-3.3,2.5-3.3,2.5V19.4z"/>
	</g>
	<g>
		<path class="st3" d="M122.4,6.2h1.4c0.7,0,0.9-0.2,0.9-0.9V3.9c0-0.7-0.2-0.9-0.9-0.9h-1.4c-0.7,0-0.9,0.2-0.9,0.9v1.4
			C121.5,6,121.6,6.2,122.4,6.2"/>
	</g>
	<g>
		<path class="st3" d="M126.8,6.2h1.4c0.7,0,0.9-0.2,0.9-0.9V3.9c0-0.7-0.2-0.9-0.9-0.9h-1.4c-0.7,0-0.9,0.2-0.9,0.9v1.4
			C125.9,6,126,6.2,126.8,6.2"/>
	</g>
	<g>
		<path class="st4" d="M131.6,21.6h-1.4c-0.7,0-0.9,0.2-0.9,0.9v1.4c0,0.7,0.2,0.9,0.9,0.9h1.4c0.7,0,0.9-0.2,0.9-0.9v-1.4
			C132.5,21.8,132.3,21.6,131.6,21.6"/>
	</g>
	<g>
		<path class="st4" d="M136,21.6h-1.4c-0.7,0-0.9,0.2-0.9,0.9v1.4c0,0.7,0.1,0.9,0.9,0.9h1.4c0.7,0,0.9-0.2,0.9-0.9v-1.4
			C136.9,21.8,136.7,21.6,136,21.6"/>
	</g>
	<g>
		<path class="st4" d="M142.1,21.6h-1.4c-0.7,0-0.9,0.2-0.9,0.9v1.4c0,0.7,0.2,0.9,0.9,0.9h1.4c0.7,0,0.9-0.2,0.9-0.9v-1.4
			C143,21.8,142.9,21.6,142.1,21.6"/>
	</g>
	<g>
		<path class="st4" d="M143.1,11v5.2l-3.4,0c-0.7,0-0.9-0.1-0.9-0.7v-4.3c-1.1,0-2.2,0.1-3.3,0.1v5l-3.4,0c-0.6,0-0.8-0.1-0.9-0.6
			v-4.2c-1.2,0-2.4,0.1-3.6,0.1l0,6.9c0-0.7-0.1-1-0.3-1.3c-0.7-1.4-2.3-0.8-3.3-1c-0.5-0.1-1.8-0.5-1.9-2.2
			c-0.1-1.3,0.5-1.9,1.1-2.3c-1.4,0-2.8,0.1-4.2,0.1c-0.1,0.4-0.2,0.9-0.3,1.5c-0.5,6.2,5.9,6.3,5.9,6.3h10.9h1.9
			c1.5,0,1.5-0.9,1.5-1c0,1.1,1.2,1,1.2,1h4c2.2,0,2.5-2.1,2.5-2.1v-6.5C145.3,11,144.2,11,143.1,11"/>
	</g>
	<g>
		<path class="st4" d="M165.4,11.1c0.3-0.1,0.6-0.4,0.8-0.6c-2.9,0.1-6,0.1-9.3,0.2c-0.4,0.9-0.6,1.9-0.5,2.9
			c0.2,1.9,0.7,2.6,0.7,2.6h-2.6c-0.3-0.1-0.4-0.3-0.4-0.9v-4.5c-1.1,0-2.2,0.1-3.3,0.1v8.6c-0.3,2.1-2.1,2.1-2.1,2.1
			c-3.6,0.1-2.9,3.2-2.9,3.2c2,0.2,4.8,0,6.5-1.2c1.7-1.2,1.9-4,1.9-4l10.1,0h2.5c0-3.5-2.5-3.4-2.5-3.4l-1.8,0
			c-2.3,0-2.2-2.6-2.2-2.6C160.2,10.2,163.7,11.8,165.4,11.1"/>
	</g>
	<g>
		<path class="st2" d="M51.5,7.6c0.2-0.1,0.4-0.1,0.6-0.1c0.2,0,0.4-0.1,0.6-0.1c0.5,0,0.9,0.1,1.1,0.4c0.2,0.3,0.3,0.7,0.3,1.1v0.5
			h0.1c0.4-0.6,1-1.1,1.8-1.6c0.7-0.4,1.6-0.6,2.5-0.6c1.5,0,2.7,0.5,3.5,1.4c0.8,1,1.2,2.3,1.2,4.1v6.8c0,0.3-0.1,0.6-0.3,0.8
			c-0.2,0.2-0.5,0.3-1.1,0.3c-0.6,0-1,0-1.3-0.1V13c0-1.2-0.3-2.1-0.8-2.7c-0.5-0.6-1.3-0.8-2.3-0.8c-0.6,0-1.2,0.2-1.8,0.5
			c-0.6,0.4-1.1,0.8-1.4,1.4v8.1c0,0.3-0.1,0.6-0.3,0.8c-0.2,0.2-0.5,0.3-1.1,0.3c-0.6,0-1,0-1.3-0.1V7.6z"/>
	</g>
	<g>
		<path class="st2" d="M68.1,14.9c0.1,1.1,0.5,2,1.3,2.6c0.7,0.6,1.7,0.9,2.9,0.9c0.5,0,0.9,0,1.3-0.1c0.4-0.1,0.7-0.2,1-0.3
			c0.3-0.1,0.5-0.2,0.8-0.3c0.2-0.1,0.5-0.1,0.7-0.1c0.4,0,0.6,0.2,0.8,0.6c0.2,0.4,0.2,0.8,0.1,1.4c-0.5,0.3-1.2,0.5-2,0.7
			c-0.8,0.2-1.7,0.4-2.8,0.4c-1.1,0-2-0.2-2.9-0.5c-0.9-0.3-1.6-0.8-2.2-1.4c-0.6-0.6-1-1.3-1.3-2.2c-0.3-0.8-0.5-1.7-0.5-2.7
			s0.2-1.9,0.5-2.7c0.3-0.8,0.8-1.5,1.3-2.1c0.6-0.6,1.2-1.1,2-1.4c0.8-0.3,1.6-0.5,2.5-0.5c1,0,1.9,0.2,2.6,0.6
			c0.8,0.4,1.4,0.9,1.9,1.5c0.5,0.6,0.9,1.3,1.1,2c0.3,0.8,0.4,1.5,0.4,2.3c0,0.3,0,0.5,0,0.7c0,0.2-0.1,0.4-0.1,0.6H68.1z M75.2,13
			c-0.1-1-0.4-1.9-1-2.6c-0.6-0.7-1.5-1.1-2.5-1.1c-1.1,0-1.9,0.3-2.5,1c-0.6,0.7-1,1.6-1.1,2.7H75.2z"/>
	</g>
	<g>
		<path class="st2" d="M93.9,19.5c-0.1,0.4-0.3,0.7-0.7,0.9c-0.4,0.2-0.8,0.2-1.2,0.2c-0.2,0-0.5,0-0.8-0.1c-0.3,0-0.6-0.1-0.7-0.1
			l-2.7-9.9l-2.5,8.9c-0.1,0.5-0.4,0.8-0.7,0.9c-0.3,0.2-0.7,0.2-1.2,0.2c-0.2,0-0.5,0-0.8-0.1c-0.3,0-0.6-0.1-0.7-0.2L78.7,7.7
			c0.2-0.1,0.4-0.1,0.6-0.2c0.2-0.1,0.5-0.1,0.8-0.1c0.4,0,0.7,0.1,1,0.2c0.2,0.2,0.4,0.4,0.5,0.8l1.1,5.2l0.9,4.4h0.1
			c0.1-0.5,0.2-1.1,0.4-1.7c0.2-0.7,0.4-1.3,0.5-1.8l1.7-6c0.1-0.2,0.2-0.7,0.2-0.8c0.1-0.2,1.1-0.6,2.2-0.3C89,7.4,89,7.5,89.1,7.6
			c0.1,0.1,0.2,0.5,0.2,0.5l1.8,6.5c0.2,0.6,0.3,1.3,0.5,1.9c0.1,0.6,0.3,1.1,0.4,1.6h0.1c0.1-0.5,0.2-1,0.3-1.5
			c0.1-0.5,0.2-1.1,0.4-1.7l1.5-6.5c0.1-0.4,0.2-0.6,0.5-0.8c0.2-0.1,0.5-0.2,0.9-0.2c0.3,0,0.5,0,0.7,0.1c0.2,0.1,0.4,0.1,0.6,0.2
			L93.9,19.5z"/>
	</g>
	<g>
		<path class="st2" d="M101.7,14.6c-1.4-0.4-2.4-0.9-3-1.5c-0.6-0.6-0.9-1.3-0.9-2.2c0-0.5,0.1-0.9,0.3-1.4c0.2-0.4,0.5-0.8,0.9-1.2
			c0.4-0.3,1-0.6,1.6-0.8c0.7-0.2,1.5-0.3,2.4-0.3c1.5,0,3.2,0.3,4.9,0.9c0.1,0.6,0,1-0.2,1.4c-0.2,0.4-0.5,0.5-0.9,0.5
			c-0.2,0-0.4,0-0.6-0.1c-0.2-0.1-0.5-0.1-0.8-0.2c-0.3-0.1-0.7-0.1-1-0.2c-0.4-0.1-0.8-0.1-1.3-0.1c-1,0-1.6,0.1-2,0.4
			c-0.4,0.3-0.6,0.6-0.6,1c0,0.2,0,0.3,0.1,0.5c0,0.1,0.1,0.3,0.3,0.4c0.1,0.1,0.3,0.2,0.6,0.4c0.3,0.1,0.6,0.2,1.1,0.4l2.1,0.6
			c1.5,0.4,2.5,0.9,3.1,1.5c0.6,0.6,0.9,1.4,0.9,2.3c0,0.5-0.1,0.9-0.2,1.4c-0.2,0.5-0.4,0.9-0.8,1.2c-0.4,0.4-1,0.7-1.7,0.9
			c-0.7,0.2-1.6,0.4-2.7,0.4c-0.9,0-1.7-0.1-2.7-0.3c-0.9-0.2-1.8-0.4-2.7-0.7c-0.1-0.6,0-1,0.1-1.4c0.2-0.4,0.5-0.6,0.9-0.6
			c0.2,0,0.5,0,0.8,0.1c0.3,0.1,0.6,0.2,1,0.3c0.4,0.1,0.8,0.2,1.2,0.3c0.4,0.1,0.9,0.1,1.4,0.1c0.6,0,1.1,0,1.4-0.1
			c0.4-0.1,0.6-0.2,0.8-0.4c0.2-0.2,0.3-0.3,0.4-0.5c0.1-0.2,0.1-0.4,0.1-0.6c0-0.4-0.2-0.8-0.5-1c-0.3-0.2-0.9-0.5-1.7-0.7
			L101.7,14.6z"/>
	</g>
</g>
</svg>
