<svg xmlns="http://www.w3.org/2000/svg" width="120" height="40" viewBox="0 0 120 40">
    <g fill="none">
        <path fill="#A6A6A6" d="M110.135 0H9.535c-.367 0-.73 0-1.095.002-.306.002-.61.008-.919.013C6.85.023 6.18.082 5.517.19c-.661.113-1.302.324-1.9.627-.599.306-1.145.704-1.62 1.18-.477.473-.875 1.02-1.178 1.62-.304.6-.514 1.24-.625 1.903-.111.662-.17 1.332-.179 2.002-.01.307-.01.615-.015.921V31.56c.005.31.006.61.015.921.008.671.068 1.34.18 2.002.11.663.32 1.306.624 1.905.303.598.701 1.143 1.179 1.614.473.477 1.02.875 1.618 1.179.599.304 1.24.517 1.901.63.663.11 1.333.168 2.004.177.31.007.613.011.919.011.366.002.728.002 1.095.002h100.6c.36 0 .724 0 1.084-.002.304 0 .617-.004.922-.01.67-.01 1.338-.068 2-.178.663-.114 1.307-.327 1.908-.63.598-.304 1.144-.702 1.617-1.179.476-.473.875-1.018 1.182-1.614.302-.6.51-1.242.619-1.905.111-.661.173-1.33.185-2.002.004-.31.004-.61.004-.921.008-.364.008-.725.008-1.094V9.536c0-.366 0-.73-.008-1.092 0-.306 0-.614-.004-.92-.012-.672-.074-1.34-.185-2.003-.109-.662-.318-1.303-.62-1.903-.617-1.203-1.595-2.182-2.798-2.8-.601-.302-1.245-.514-1.908-.627-.661-.11-1.33-.169-2-.176-.305-.005-.618-.011-.922-.013-.36-.002-.725-.002-1.084-.002z"/>
        <path fill="#000" d="M8.445 39.125c-.305 0-.602-.004-.904-.01-.627-.009-1.251-.063-1.87-.164-.576-.1-1.134-.284-1.656-.548-.517-.261-.99-.605-1.397-1.016-.414-.407-.76-.879-1.02-1.397-.265-.521-.449-1.08-.544-1.657-.103-.62-.158-1.247-.166-1.875-.007-.21-.015-.913-.015-.913v-23.1s.009-.692.015-.895c.007-.628.063-1.253.165-1.872.096-.579.279-1.14.544-1.662.26-.518.603-.99 1.015-1.398.41-.412.884-.757 1.402-1.023.52-.263 1.078-.446 1.653-.544C6.287.95 6.915.895 7.543.887l.902-.012h102.769l.913.013c.623.007 1.244.061 1.858.162.581.099 1.145.284 1.671.548 1.038.535 1.883 1.381 2.415 2.42.26.52.441 1.076.535 1.649.104.624.162 1.255.174 1.887.003.283.003.588.003.89.008.375.008.732.008 1.092v20.929c0 .363 0 .718-.008 1.075 0 .325 0 .623-.004.93-.011.62-.069 1.24-.17 1.853-.094.581-.276 1.145-.54 1.67-.264.513-.607.98-1.016 1.386-.409.414-.881.759-1.4 1.022-.525.266-1.087.452-1.668.55-.618.101-1.243.156-1.869.163-.293.007-.6.011-.897.011l-1.084.002-101.69-.002z"/>
        <path fill="#FFF" d="M42.302 27.14H37.57l-1.137 3.356h-2.005l4.484-12.418h2.083l4.483 12.418h-2.039l-1.136-3.356zm-4.243-1.55h3.752l-1.85-5.446h-.051l-1.85 5.447zm17.1.38c0 2.813-1.505 4.62-3.778 4.62-1.174.062-2.28-.553-2.848-1.583h-.043v4.484H46.63V21.442h1.8v1.506h.033c.593-1.024 1.7-1.638 2.883-1.6 2.298 0 3.813 1.816 3.813 4.622zm-1.91 0c0-1.833-.947-3.038-2.392-3.038-1.42 0-2.375 1.23-2.375 3.038 0 1.824.955 3.046 2.375 3.046 1.445 0 2.393-1.197 2.393-3.046zm11.876 0c0 2.813-1.506 4.62-3.779 4.62-1.174.062-2.28-.553-2.848-1.583h-.043v4.484h-1.859V21.442h1.799v1.506h.034c.593-1.024 1.7-1.638 2.883-1.6 2.298 0 3.813 1.816 3.813 4.622zm-1.91 0c0-1.833-.948-3.038-2.393-3.038-1.42 0-2.375 1.23-2.375 3.038 0 1.824.955 3.046 2.375 3.046 1.445 0 2.392-1.197 2.392-3.046zm8.495 1.066c.138 1.232 1.334 2.04 2.97 2.04 1.566 0 2.693-.808 2.693-1.919 0-.964-.68-1.54-2.29-1.936l-1.609-.388c-2.28-.55-3.339-1.617-3.339-3.348 0-2.142 1.867-3.614 4.519-3.614 2.624 0 4.423 1.472 4.483 3.614h-1.876c-.112-1.239-1.136-1.987-2.634-1.987-1.497 0-2.521.757-2.521 1.858 0 .878.654 1.395 2.255 1.79l1.368.336c2.548.603 3.606 1.626 3.606 3.443 0 2.323-1.85 3.778-4.793 3.778-2.754 0-4.614-1.42-4.734-3.667h1.902zM83.346 19.3v2.142h1.722v1.472h-1.722v4.991c0 .776.345 1.137 1.102 1.137.204-.004.408-.018.611-.043v1.463c-.34.063-.686.092-1.032.086-1.833 0-2.548-.689-2.548-2.445v-5.189h-1.316v-1.472h1.316V19.3h1.867zm2.719 6.67c0-2.849 1.678-4.639 4.294-4.639 2.625 0 4.295 1.79 4.295 4.639 0 2.856-1.661 4.638-4.295 4.638-2.633 0-4.294-1.782-4.294-4.638zm6.695 0c0-1.954-.895-3.108-2.401-3.108-1.506 0-2.4 1.162-2.4 3.108 0 1.962.894 3.106 2.4 3.106 1.506 0 2.401-1.144 2.401-3.106zm3.426-4.528h1.773v1.541h.043c.247-.992 1.156-1.674 2.177-1.635.214-.001.428.022.637.069v1.738c-.27-.082-.552-.12-.835-.112-.546-.022-1.075.196-1.447.596-.373.4-.551.944-.49 1.487v5.37h-1.858v-9.054zm13.198 6.395c-.25 1.643-1.85 2.771-3.898 2.771-2.634 0-4.269-1.764-4.269-4.595 0-2.84 1.644-4.682 4.19-4.682 2.506 0 4.08 1.72 4.08 4.466v.637h-6.394v.112c-.06.674.173 1.341.64 1.832.465.49 1.12.757 1.796.732.902.085 1.752-.433 2.09-1.273h1.765zm-6.282-2.702h4.526c.034-.606-.186-1.198-.608-1.634-.421-.437-1.006-.677-1.612-.664-.612-.004-1.199.237-1.632.668-.433.432-.676 1.019-.674 1.63zM37.826 8.731c.79-.057 1.562.244 2.106.818.544.574.801 1.362.702 2.147 0 1.906-1.03 3.002-2.808 3.002h-2.155V8.73h2.155zm-1.228 5.123h1.125c.563.034 1.112-.188 1.494-.605.382-.416.556-.982.473-1.541.077-.556-.1-1.118-.48-1.53-.381-.414-.927-.635-1.487-.604h-1.125v4.28zm5.083-1.41c-.078-.807.31-1.588.998-2.015.69-.428 1.561-.428 2.25 0 .689.427 1.076 1.208.999 2.015.078.808-.308 1.591-.998 2.02-.69.428-1.562.428-2.252 0-.69-.429-1.076-1.212-.997-2.02zm3.333 0c0-.976-.439-1.547-1.208-1.547-.773 0-1.207.571-1.207 1.547 0 .984.434 1.55 1.207 1.55.77 0 1.208-.57 1.208-1.55zm6.56 2.254h-.923l-.93-3.317h-.07l-.927 3.317h-.913l-1.242-4.503h.902l.806 3.436h.067l.926-3.436h.852l.926 3.436h.07l.803-3.436h.889l-1.237 4.503zm2.28-4.503h.855v.715h.066c.231-.527.771-.849 1.344-.802.444-.033.879.137 1.182.463.303.325.442.771.377 1.212v2.915h-.889v-2.692c0-.724-.314-1.084-.972-1.084-.3-.014-.593.104-.8.324-.206.22-.307.518-.275.817v2.635h-.888v-4.503zm5.24-1.758h.888v6.26h-.888v-6.26zm2.124 4.007c-.077-.807.31-1.588.999-2.015.689-.428 1.56-.428 2.25 0 .688.427 1.076 1.208.998 2.015.079.808-.308 1.591-.997 2.02-.69.428-1.563.428-2.252 0-.69-.429-1.077-1.212-.998-2.02zm3.333 0c0-.976-.439-1.547-1.208-1.547-.773 0-1.207.571-1.207 1.547 0 .984.434 1.55 1.207 1.55.77 0 1.208-.57 1.208-1.55zm1.85.98c0-.81.603-1.278 1.675-1.344l1.22-.07v-.389c0-.475-.315-.744-.922-.744-.497 0-.84.182-.939.5h-.86c.09-.773.818-1.27 1.84-1.27 1.128 0 1.765.563 1.765 1.514v3.077h-.855v-.633h-.07c-.291.462-.808.732-1.353.707-.382.04-.764-.084-1.05-.34-.286-.258-.45-.623-.451-1.008zm2.894-.384v-.377l-1.1.07c-.62.042-.9.253-.9.65 0 .405.351.64.834.64.287.03.572-.059.792-.244.22-.186.355-.452.374-.74zm2.053-.596c0-1.423.732-2.324 1.87-2.324.574-.026 1.112.281 1.38.79h.067V8.437h.888v6.26h-.851v-.71h-.07c-.29.504-.834.806-1.415.785-1.145 0-1.869-.901-1.869-2.328zm.918 0c0 .955.45 1.53 1.203 1.53.75 0 1.212-.583 1.212-1.526 0-.938-.468-1.53-1.212-1.53-.748 0-1.203.58-1.203 1.526zm6.964 0c-.077-.807.31-1.588.999-2.015.689-.428 1.56-.428 2.25 0 .688.427 1.075 1.208.998 2.015.079.808-.308 1.591-.997 2.02-.69.428-1.563.428-2.252 0-.69-.429-1.077-1.212-.998-2.02zm3.333 0c0-.976-.438-1.547-1.208-1.547-.772 0-1.207.571-1.207 1.547 0 .984.435 1.55 1.207 1.55.77 0 1.208-.57 1.208-1.55zm2.106-2.25h.856v.716h.066c.231-.527.77-.849 1.344-.802.444-.033.879.137 1.182.463.303.325.442.771.377 1.212v2.915h-.889v-2.692c0-.724-.314-1.084-.972-1.084-.3-.014-.593.104-.8.324-.206.22-.307.518-.275.817v2.635h-.889v-4.503zm8.846-1.12v1.141h.976v.749h-.976v2.315c0 .472.195.679.637.679.113 0 .226-.008.339-.021v.74c-.16.029-.322.044-.484.046-.988 0-1.381-.348-1.381-1.216v-2.543h-.715v-.749h.715V9.074h.89zm2.19-.637h.88v2.481h.07c.243-.53.792-.853 1.374-.806.441-.024.87.15 1.17.474.3.325.44.767.38 1.205v2.907h-.889V12.01c0-.72-.335-1.084-.963-1.084-.31-.025-.614.087-.832.307-.219.22-.33.526-.302.835v2.63h-.888V8.437zm9.056 5.045c-.249.85-1.07 1.398-1.95 1.303-.601.016-1.178-.233-1.579-.68-.4-.449-.584-1.05-.502-1.645-.08-.596.103-1.198.501-1.65.399-.45.973-.707 1.575-.702 1.253 0 2.009.856 2.009 2.27v.31h-3.18v.05c-.028.334.086.664.315.91.228.246.55.384.884.38.435.052.858-.164 1.072-.546h.855zm-3.126-1.451h2.275c.022-.306-.085-.607-.296-.829-.211-.222-.506-.345-.813-.338-.31-.004-.61.118-.829.338-.22.22-.34.518-.337.829zM24.769 20.3c.022-1.696.911-3.263 2.356-4.151-.915-1.308-2.395-2.108-3.99-2.158-1.68-.176-3.308 1.005-4.164 1.005-.872 0-2.19-.988-3.608-.958-1.867.06-3.565 1.096-4.473 2.727-1.934 3.349-.491 8.27 1.361 10.977.927 1.325 2.01 2.805 3.428 2.753 1.387-.058 1.905-.885 3.58-.885 1.658 0 2.144.885 3.59.852 1.489-.025 2.426-1.332 3.32-2.67.667-.944 1.18-1.988 1.52-3.092-1.769-.748-2.918-2.48-2.92-4.4zm-2.732-8.09c.812-.973 1.212-2.225 1.115-3.49-1.24.13-2.385.723-3.208 1.66-.812.924-1.223 2.133-1.144 3.361 1.257.013 2.45-.55 3.237-1.53z"/>
    </g>
</svg>
