<?xml version="1.0" encoding="utf-8"?>
<!-- Generator: Adobe Illustrator 26.2.1, SVG Export Plug-In . SVG Version: 6.00 Build 0)  -->
<svg version="1.1" id="Layer_1" xmlns="http://www.w3.org/2000/svg" xmlns:xlink="http://www.w3.org/1999/xlink" x="0px" y="0px"
	 viewBox="0 0 533.51 109.2" style="enable-background:new 0 0 533.51 109.2;" xml:space="preserve">
<style type="text/css">
	.st0{fill:#FFFFFF;}
</style>
<g>
	<g>
		<path class="st0" d="M347.44,45.31c-3.21-3.61-7.16-6.41-11.84-8.36c-4.69-1.97-9.99-2.94-15.93-2.94
			c-7.13,0-13.74,1.43-19.84,4.29c-6.1,2.86-11.65,6.71-16.66,11.55c-5.01,4.85-9.42,10.44-13.22,16.78
			c-3.81,6.34-7,13.02-9.56,20.04H137.42v22.51h197.37l22.53-22.55V75.64c0-6.37-0.84-12.11-2.53-17.23
			C353.1,53.3,350.65,48.93,347.44,45.31z M334.78,86.67h-52.02c2.01-4.46,4.29-8.66,6.83-12.62c2.53-3.94,5.26-7.39,8.2-10.33
			s6.08-5.26,9.43-6.98c3.35-1.71,6.84-2.57,10.49-2.57c3.43,0,6.24,0.72,8.46,2.16c2.2,1.45,3.94,3.34,5.22,5.68
			c1.27,2.34,2.17,4.95,2.65,7.84c0.49,2.89,0.74,5.77,0.74,8.66V86.67z"/>
		<path class="st0" d="M498.94,62.78c-0.4-2.91-1.1-5.75-2.08-8.53c-0.98-2.78-2.28-5.4-3.92-7.85c-1.63-2.45-3.68-4.58-6.13-6.41
			c-2.45-1.82-5.33-3.28-8.66-4.37c-3.32-1.09-7.15-1.63-11.51-1.63c-5.66,0-10.67,1.03-15.02,3.1c-4.36,2.07-8.01,4.79-10.95,8.16
			c-2.94,3.38-5.17,7.23-6.69,11.55c-1.53,4.33-2.29,8.76-2.29,13.27c0,1.2,0.05,2.56,0.13,4.09c0.08,1.52,0.23,3.05,0.45,4.57
			c0.22,1.53,0.49,2.99,0.82,4.37c0.33,1.39,0.73,2.58,1.23,3.55h-31.41v22.52h74.28l22.53-22.55V72.35c0-0.72-0.02-1.43-0.07-2.14
			C499.51,67.79,499.3,65.32,498.94,62.78z M477.19,86.67h-9.72c-1.96,0-3.8-0.35-5.52-1.06c-1.71-0.71-3.19-1.8-4.45-3.27
			c-1.25-1.47-2.24-3.31-2.98-5.52c-0.74-2.2-1.1-4.78-1.1-7.72c0-1.85,0.2-3.67,0.61-5.47c0.41-1.79,1.09-3.39,2.04-4.77
			c0.96-1.39,2.22-2.51,3.8-3.35c1.57-0.85,3.53-1.27,5.87-1.27c2.35,0,4.26,0.5,5.76,1.51c1.49,1,2.67,2.32,3.51,3.96
			c0.84,1.63,1.41,3.5,1.71,5.63c0.3,2.12,0.45,4.27,0.45,6.44V86.67z"/>
		<polygon class="st0" points="137.42,54.16 114.9,54.16 114.9,86.67 102.4,86.67 102.4,0 79.88,22.52 79.88,109.2 102.4,109.2 
			102.4,109.19 114.9,109.19 137.42,86.67 137.42,86.67 		"/>
		<polygon class="st0" points="510.99,0.04 510.99,109.2 533.51,86.68 533.51,0.04 		"/>
		<polygon class="st0" points="380.37,86.64 357.32,86.64 357.32,109.16 380.37,109.16 380.37,109.17 402.9,86.64 402.9,33.99 
			380.37,33.99 		"/>
		<polygon class="st0" points="4.39,54.14 36.9,86.66 0,86.66 0,109.18 68.72,109.18 68.72,86.66 20.3,38.24 		"/>
		<path class="st0" d="M405.03,22.64c6.22,0,11.26-5.04,11.26-11.26s-5.04-11.27-11.26-11.27s-11.27,5.04-11.27,11.27
			S398.81,22.64,405.03,22.64z"/>
		<path class="st0" d="M376.86,22.64c6.22,0,11.27-5.04,11.27-11.26s-5.04-11.27-11.27-11.27S365.6,5.15,365.6,11.37
			S370.64,22.64,376.86,22.64z"/>
		<path class="st0" d="M480.73,22.64c6.22,0,11.26-5.04,11.26-11.26s-5.04-11.27-11.26-11.27c-6.22,0-11.26,5.04-11.26,11.27
			S474.51,22.64,480.73,22.64z"/>
		<path class="st0" d="M452.56,22.64c6.22,0,11.27-5.04,11.27-11.26s-5.04-11.27-11.27-11.27c-6.22,0-11.26,5.04-11.26,11.27
			S446.34,22.64,452.56,22.64z"/>
	</g>
</g>
</svg>
