<?xml version="1.0" encoding="utf-8"?>

<!-- Generator: Adobe Illustrator 27.1.1, SVG Export Plug-In . SVG Version: 6.00 Build 0)  -->

<svg version="1.1" id="Layer_1" xmlns="http://www.w3.org/2000/svg" xmlns:xlink="http://www.w3.org/1999/xlink" x="0px" y="0px"

	 viewBox="0 0 413.2 183.7" style="enable-background:new 0 0 413.2 183.7;" xml:space="preserve">

<style type="text/css">

	.st0{fill:#1A8842;}

	.st1{fill:#79C143;}

	.st2{fill-rule:evenodd;clip-rule:evenodd;fill:#79C143;}

</style>

<g>

	<path class="st0" d="M9.9,11.8c0.6,0.6,1.4,1.1,2.2,1.5c0.8,0.4,1.7,0.6,2.7,0.6c0.9,0,1.8-0.2,2.7-0.6c0.8-0.4,1.5-0.9,2.2-1.5

		c0.6-0.6,1.1-1.4,1.5-2.2c0.4-0.8,0.6-1.7,0.6-2.7c0-0.9-0.2-1.8-0.6-2.7c-0.4-0.8-0.9-1.6-1.5-2.2c-0.6-0.6-1.3-1.1-2.2-1.5

		c-0.8-0.4-1.7-0.5-2.7-0.5c-1,0-1.9,0.2-2.7,0.5c-0.8,0.4-1.6,0.9-2.2,1.5C9.3,2.7,8.8,3.5,8.5,4.3C8.1,5.1,7.9,6,7.9,7

		c0,0.9,0.2,1.8,0.5,2.7C8.8,10.5,9.3,11.2,9.9,11.8z"/>

	<path class="st0" d="M27.1,11.8c0.6,0.6,1.3,1.1,2.2,1.5c0.8,0.4,1.7,0.6,2.7,0.6c0.9,0,1.8-0.2,2.7-0.6c0.8-0.4,1.6-0.9,2.2-1.5

		c0.6-0.6,1.1-1.4,1.5-2.2c0.4-0.8,0.6-1.7,0.6-2.7c0-0.9-0.2-1.8-0.6-2.7c-0.4-0.8-0.9-1.6-1.5-2.2c-0.6-0.6-1.4-1.1-2.2-1.5

		c-0.8-0.4-1.7-0.5-2.7-0.5c-1,0-1.9,0.2-2.7,0.5c-0.8,0.4-1.5,0.9-2.2,1.5c-0.6,0.6-1.1,1.4-1.5,2.2C25.3,5.1,25.1,6,25.1,7

		c0,0.9,0.2,1.8,0.5,2.7C26,10.5,26.5,11.2,27.1,11.8z"/>

	<path class="st0" d="M107.6,12.8h-5.1c-0.8,0-1.5-0.1-2-0.3c-0.5-0.2-0.9-0.4-1.2-0.7c-0.3-0.3-0.5-0.6-0.6-1

		c-0.1-0.4-0.2-0.8-0.2-1.2c0-0.8,0.3-1.5,0.8-2.1c0.5-0.6,1.4-0.9,2.7-0.9c0.3,0,0.8,0.1,1.4,0.2c0.6,0.1,1.3,0.3,2.2,0.5V0.9

		c-0.6-0.2-1.4-0.4-2.2-0.6c-0.8-0.2-1.8-0.3-2.8-0.3c-1.1,0-2.3,0.2-3.3,0.5c-1.1,0.4-2,0.9-2.8,1.7C93.6,3,92.9,3.9,92.5,5

		c-0.5,1.1-0.7,2.4-0.7,3.9c0,0.3,0,0.6,0,0.9c0,0.4,0.1,0.7,0.1,1.1c0.1,0.4,0.1,0.7,0.3,1.1c0.1,0.3,0.2,0.6,0.4,0.9h-3.8v6.7

		h18.9V12.8z"/>

	<path class="st0" d="M168.9,83c-0.6-0.6-1.3-1.1-2.2-1.5c-0.8-0.4-1.7-0.5-2.7-0.5c-1,0-1.9,0.2-2.7,0.5c-0.8,0.4-1.6,0.8-2.2,1.5

		c-0.6,0.6-1.1,1.4-1.5,2.2c-0.4,0.8-0.5,1.7-0.5,2.7c0,0.9,0.2,1.8,0.5,2.7c0.4,0.8,0.8,1.6,1.5,2.2c0.6,0.6,1.4,1.1,2.2,1.5

		c0.8,0.4,1.7,0.6,2.7,0.6c0.9,0,1.8-0.2,2.7-0.6c0.8-0.4,1.5-0.9,2.2-1.5c0.6-0.6,1.1-1.4,1.5-2.2c0.4-0.8,0.6-1.7,0.6-2.7

		c0-0.9-0.2-1.8-0.6-2.7C170.1,84.4,169.6,83.7,168.9,83z"/>

	<path class="st0" d="M186.1,83c-0.6-0.6-1.4-1.1-2.2-1.5c-0.8-0.4-1.7-0.5-2.7-0.5c-1,0-1.9,0.2-2.7,0.5c-0.8,0.4-1.5,0.8-2.2,1.5

		c-0.6,0.6-1.1,1.4-1.5,2.2c-0.4,0.8-0.5,1.7-0.5,2.7c0,0.9,0.2,1.8,0.5,2.7c0.4,0.8,0.8,1.6,1.5,2.2c0.6,0.6,1.3,1.1,2.2,1.5

		c0.8,0.4,1.7,0.6,2.7,0.6c0.9,0,1.8-0.2,2.7-0.6c0.8-0.4,1.6-0.9,2.2-1.5c0.6-0.6,1.1-1.4,1.5-2.2c0.4-0.8,0.6-1.7,0.6-2.7

		c0-0.9-0.2-1.8-0.6-2.7C187.2,84.4,186.7,83.7,186.1,83z"/>

	<path class="st0" d="M248.9,30.2v30.2h-12.2H221c0,0,0,0,0,0c0,0,0,0,0,0h-15.7h-15.7c-1.8,0-3.2-0.1-4.4-0.4

		c-1.2-0.3-2.2-0.7-2.9-1.3c-0.7-0.6-1.2-1.4-1.6-2.3c-0.3-0.9-0.5-2.1-0.5-3.4V30.2h-13.8v24c0,1.3-0.1,2.4-0.3,3.2

		c-0.2,0.8-0.6,1.5-1.1,1.9c-0.5,0.4-1.2,0.7-2,0.9c-0.8,0.2-1.8,0.2-3.1,0.2h-8.5h-15.7H120c-1.7,0-3.1-0.1-4.3-0.4

		c-1.1-0.3-2-0.7-2.7-1.3c-0.7-0.6-1.1-1.4-1.4-2.3c-0.3-0.9-0.4-2.1-0.4-3.4V30.2H97.3v24c0,1.3-0.1,2.4-0.3,3.2

		c-0.2,0.8-0.6,1.5-1.1,1.9c-0.5,0.4-1.2,0.7-2,0.9c-0.8,0.2-1.8,0.2-3.1,0.2h-6.4h12.4H81H65.3c0,0,0,0,0,0c0,0,0,0,0,0H49.6h-5.2

		c-1.5,0-2.4-0.3-2.9-0.9c-0.5-0.6-0.7-1.7-0.7-3.4V24.2H22.6c-2.6,0-5.2,0.4-7.8,1.1c-2.6,0.8-5,2-7.2,3.7

		c-2.2,1.7-3.9,3.9-5.3,6.6c-1.4,2.7-2.1,6-2.1,9.8c0,2.7,0.3,5,1,7c0.7,2,1.6,3.7,2.7,5.2c1.1,1.4,2.4,2.6,3.8,3.6

		c1.4,0.9,2.9,1.7,4.4,2.2c1.5,0.6,3,0.9,4.5,1.2c1.5,0.2,2.8,0.3,4,0.3c1.3,0,2.6-0.1,3.8-0.3c1.3-0.2,2.5-0.4,3.8-0.7

		c0.5,1.7,1.3,3.1,2.3,4.2c1,1.1,2.2,2,3.6,2.6c1.3,0.6,2.8,1.1,4.4,1.3c1.6,0.3,3.3,0.4,5,0.4h6.3h15.7c0,0,0,0,0,0s0,0,0,0H81

		h15.7H84.4h8.7c1.4,0,2.9-0.1,4.4-0.2c1.5-0.1,2.9-0.3,4.2-0.7c1.3-0.4,2.6-0.9,3.8-1.6c1.2-0.7,2.2-1.7,3.1-3

		c0.7,1.2,1.6,2.1,2.5,2.9c0.9,0.7,1.9,1.3,2.8,1.7c1,0.4,2,0.6,3,0.8c1,0.1,2.1,0.2,3.1,0.2h15.7h15.7h10.8c1.4,0,2.9-0.1,4.3-0.2

		c1.5-0.1,2.9-0.3,4.2-0.7c1.4-0.4,2.6-0.9,3.8-1.6c1.2-0.7,2.2-1.7,3-3c0.7,1.2,1.5,2.1,2.5,2.9c0.9,0.7,1.9,1.3,3,1.7

		c1.1,0.4,2.1,0.6,3.3,0.8c1.1,0.1,2.2,0.2,3.3,0.2h15.7H221c0,0,0,0,0,0c0,0,0,0,0,0h15.7h26.2V30.2H248.9z M26.9,52

		c-1,0.4-2,0.6-3,0.7c-1,0.1-1.9,0.1-2.8,0.1c-1.5,0-2.8-0.2-3.7-0.7c-1-0.5-1.7-1.1-2.3-1.8c-0.6-0.8-0.9-1.6-1.1-2.6

		c-0.2-0.9-0.3-1.9-0.3-2.8c0-1.1,0.2-2.2,0.5-3.2c0.3-1,0.8-1.9,1.5-2.7c0.7-0.8,1.5-1.4,2.5-1.8c1-0.5,2.1-0.7,3.5-0.7h5.4V52z"/>

	<path class="st0" d="M259.8,82.7c-0.6-0.6-1.4-1.1-2.2-1.5c-0.8-0.4-1.7-0.5-2.7-0.5c-1,0-1.9,0.2-2.7,0.5

		c-0.8,0.4-1.5,0.8-2.2,1.5c-0.6,0.6-1.1,1.4-1.5,2.2c-0.4,0.8-0.5,1.7-0.5,2.7c0,0.9,0.2,1.8,0.5,2.7c0.4,0.8,0.8,1.6,1.5,2.2

		c0.6,0.6,1.3,1.1,2.2,1.5c0.8,0.4,1.7,0.6,2.7,0.6c0.9,0,1.8-0.2,2.7-0.6c0.8-0.4,1.6-0.9,2.2-1.5c0.6-0.6,1.1-1.4,1.5-2.2

		c0.4-0.8,0.6-1.7,0.6-2.7c0-0.9-0.2-1.8-0.6-2.7C260.9,84.1,260.4,83.3,259.8,82.7z"/>

</g>

<g>

	<path class="st1" d="M25.4,102c0.6,0.6,1.4,1.1,2.2,1.5c0.8,0.4,1.7,0.6,2.7,0.6c0.9,0,1.8-0.2,2.7-0.6c0.8-0.4,1.5-0.9,2.2-1.5

		c0.6-0.6,1.1-1.4,1.5-2.2c0.4-0.8,0.6-1.7,0.6-2.7c0-0.9-0.2-1.8-0.6-2.7c-0.4-0.8-0.9-1.6-1.5-2.2c-0.6-0.6-1.3-1.1-2.2-1.5

		c-0.8-0.4-1.7-0.5-2.7-0.5c-1,0-1.9,0.2-2.7,0.5c-0.8,0.4-1.6,0.9-2.2,1.5c-0.6,0.6-1.1,1.4-1.5,2.2c-0.4,0.8-0.5,1.7-0.5,2.7

		c0,0.9,0.2,1.8,0.5,2.7C24.3,100.6,24.8,101.3,25.4,102z"/>

	<path class="st1" d="M51.4,122.7c-2.4-3-5.5-5.5-9.4-7.3c-3.9-1.8-8.6-2.7-14.3-2.7c-1.3,0-2.7,0.1-4.1,0.3

		c-1.4,0.2-2.8,0.4-4.1,0.7c-1.3,0.3-2.6,0.6-3.7,0.9c-1.2,0.3-2.2,0.7-3,1v12.4c1.3-0.4,2.6-0.7,3.9-0.9c1.3-0.3,2.5-0.5,3.6-0.6

		c1.1-0.2,2.1-0.3,2.9-0.4c0.8-0.1,1.5-0.1,1.9-0.1c6.4,0,11.2,1.6,14.3,4.7c3.1,3.1,4.7,7.6,4.7,13.4v1.4H21.6

		c-2.8,0-5.5,0.2-8.1,0.7c-2.6,0.5-4.9,1.3-6.9,2.6c-2,1.2-3.6,2.9-4.8,5c-1.2,2.1-1.8,4.7-1.8,7.9c0,2.7,0.6,5.2,1.7,7.4

		c1.1,2.2,2.6,4.3,4.5,6.1c1.9,1.8,4.1,3.4,6.6,4.9c2.5,1.4,5.2,2.7,8.1,3.8l6.2-11.6c-1.5-0.7-3.1-1.4-4.6-2.1

		c-1.5-0.8-2.9-1.5-4.2-2.4c-1.2-0.8-2.2-1.7-3-2.6c-0.8-0.9-1.1-1.8-1.1-2.8c0-0.6,0.1-1.1,0.3-1.7c0.2-0.6,0.6-1.1,1.1-1.5

		c0.5-0.4,1.2-0.8,2-1.1c0.9-0.3,1.9-0.4,3.3-0.4h37.2v-11.8c0-4.3-0.5-8.4-1.6-12.4C55.5,129.3,53.8,125.8,51.4,122.7z"/>

	<path class="st1" d="M114,102c0.6,0.6,1.4,1.1,2.2,1.5c0.8,0.4,1.7,0.6,2.7,0.6c0.9,0,1.8-0.2,2.7-0.6c0.8-0.4,1.5-0.9,2.2-1.5

		c0.6-0.6,1.1-1.4,1.5-2.2c0.4-0.8,0.6-1.7,0.6-2.7c0-0.9-0.2-1.8-0.6-2.7c-0.4-0.8-0.9-1.6-1.5-2.2c-0.6-0.6-1.3-1.1-2.2-1.5

		c-0.8-0.4-1.7-0.5-2.7-0.5c-1,0-1.9,0.2-2.7,0.5c-0.8,0.4-1.6,0.9-2.2,1.5c-0.6,0.6-1.1,1.4-1.5,2.2c-0.4,0.8-0.5,1.7-0.5,2.7

		c0,0.9,0.2,1.8,0.5,2.7C112.9,100.6,113.4,101.3,114,102z"/>

	<path class="st1" d="M205.8,119.3c-1.9-2.1-4.2-3.7-6.9-4.9c-2.7-1.2-5.6-1.8-8.9-1.8c-2.7,0-5.3,0.4-7.7,1.2

		c-2.4,0.8-4.7,2.2-6.7,4c-2.1,1.9-3.9,4.4-5.5,7.4c-1.6,3.1-3,6.9-4.1,11.5c-0.4,1.8-0.9,3.2-1.5,4.3c-0.6,1.1-1.2,1.9-1.9,2.6

		c-0.7,0.6-1.4,1-2.3,1.2c-0.8,0.2-22.8,0.3-23.8,0.3h-1.8c-1.7,0-3.1-0.1-4.3-0.4c-1.1-0.3-2-0.7-2.7-1.3c-0.7-0.6-1.1-1.4-1.4-2.3

		c-0.3-0.9-0.4-2.1-0.4-3.4v-22.8H112v24c0,1.3-0.1,2.4-0.3,3.2c-0.2,0.8-0.6,1.5-1.1,1.9c-0.5,0.4-1.2,0.7-2,0.9

		c-0.8,0.2-1.8,0.2-3.1,0.2h-15h-0.1h-1.9c-0.8,0-1.6-0.1-2.2-0.2c-0.6-0.1-1.2-0.4-1.6-0.8c-0.4-0.4-0.7-1-1-1.7

		c-0.2-0.8-0.3-1.8-0.3-3V85.3H69.4v56.1c0,3.1,0.4,5.7,1.2,7.8c0.8,2.1,1.9,3.7,3.4,4.9c1.5,1.2,3.2,2.1,5.2,2.6

		c2,0.5,4.2,0.8,6.6,0.8h4.4h0.1h17.3c1.4,0,2.9-0.1,4.4-0.2s2.9-0.3,4.2-0.7c1.3-0.4,2.6-0.9,3.8-1.6c1.2-0.7,2.2-1.7,3.1-3

		c0.7,1.2,1.6,2.1,2.5,2.9c0.9,0.7,1.9,1.3,2.8,1.7c1,0.4,2,0.6,3,0.8c1,0.1,2.1,0.2,3.1,0.2h26.1c1.1,0,2.2,0,3.3-0.1

		c1-0.1,2-0.2,3-0.5c1-0.3,1.9-0.7,2.8-1.3c0.9-0.6,1.9-1.4,2.8-2.4c3.3,2.2,6.4,3.6,9.3,4.4c2.9,0.8,5.7,1.2,8.4,1.2

		c3.2,0,6.1-0.5,8.8-1.6c2.6-1.1,4.9-2.6,6.8-4.5c1.9-2,3.3-4.3,4.4-7.1c1-2.8,1.6-5.9,1.6-9.3s-0.5-6.6-1.6-9.5

		C209.2,123.9,207.8,121.4,205.8,119.3z M197.1,141.1c-0.5,1.3-1.2,2.3-2.1,3.1c-0.9,0.7-1.9,1.2-3,1.5c-1.1,0.3-2.2,0.4-3.4,0.4

		c-1.8,0-3.6-0.3-5.4-0.9c-1.8-0.6-3.4-1.4-4.9-2.4c0.2-2.8,0.7-5.2,1.4-7.4c0.7-2.2,1.6-4,2.7-5.5c1.1-1.5,2.2-2.6,3.5-3.4

		c1.3-0.8,2.6-1.2,4-1.2c1.4,0,2.7,0.4,3.7,1.1c1,0.7,1.9,1.6,2.5,2.7c0.6,1.1,1.1,2.2,1.4,3.5c0.3,1.3,0.4,2.5,0.4,3.6

		C197.9,138.1,197.6,139.8,197.1,141.1z"/>

	<path class="st1" d="M261.8,128c-0.7-3-1.9-5.7-3.5-8c-1.6-2.3-3.8-4.1-6.5-5.4c-2.7-1.3-6-2-9.9-2c-3.5,0-6.7,0.7-9.4,2

		c-2.7,1.3-5,3.1-6.8,5.3c-1.8,2.2-3.2,4.7-4.1,7.6c-0.9,2.9-1.4,5.8-1.4,8.9c0,3.6,0.5,6.7,1.6,9.3c1,2.6,2.5,4.8,4.3,6.6

		c1.8,1.8,4,3,6.4,3.9c2.5,0.8,5.1,1.3,8,1.3c3,0,5.6-0.3,7.8-0.9c-0.2,1.3-0.6,2.5-1.1,3.8c-0.5,1.2-1.2,2.3-2.3,3.3

		c-1.1,1-2.5,1.8-4.4,2.4c-1.9,0.6-4.3,0.9-7.3,0.9h-7.9v12.9h8.8c5.2,0,9.6-0.6,13.3-1.9c3.6-1.3,6.6-3.1,8.9-5.6

		c2.3-2.4,3.9-5.4,4.9-9c1-3.6,1.5-7.7,1.5-12.3v-13.3C262.9,134.3,262.5,131.1,261.8,128z M249,144c-1.8,1-4.1,1.5-7.1,1.5

		c-2.6,0-4.6-0.9-5.9-2.6c-1.3-1.7-2-4.1-2-7c0-1.6,0.1-3.1,0.4-4.4c0.3-1.3,0.7-2.5,1.3-3.4c0.6-0.9,1.4-1.7,2.3-2.2

		c1-0.5,2.1-0.8,3.5-0.8c1.4,0,2.5,0.3,3.5,0.8c0.9,0.6,1.7,1.3,2.3,2.4c0.6,1,1,2.3,1.2,3.7c0.3,1.5,0.4,3.1,0.4,4.9V144z"/>

</g>

<g>

	<g>

		<g>

			<path class="st2" d="M386,87.4c-3.3,3.1-6.8,5.8-10.5,8c0.3,1.2,0.6,2.5,0.9,3.8c1.1,5.4,1.8,11.2,2,17.4h18.9

				c-0.3-5.4-1.4-10.5-3.2-15.3C392.2,96.4,389.5,91.7,386,87.4z M320.4,99.1c-0.1,0.6-0.2,1.1-0.4,1.7c-1,4.9-1.6,10.2-1.8,15.9

				h22.4v-12.9C333.3,103.3,326.6,101.7,320.4,99.1z M325.8,83.5c-1.3,2.6-2.4,5.2-3.3,8.1c5.6,2.5,11.6,4,18.1,4.4V68

				c-5.3,1.6-10,6.3-14,14c0,0,0,0.1-0.1,0.1c-0.2,0.4-0.4,0.8-0.6,1.2C325.8,83.3,325.8,83.4,325.8,83.5z M318.8,80.2

				c0.3-0.6,0.6-1.2,0.9-1.8c1.4-2.6,2.9-5,4.4-7.1c-5.8,2.4-11.1,5.9-16,10.5c2.4,2.2,4.9,4.2,7.5,6

				C316.5,85.1,317.6,82.6,318.8,80.2z M302.8,87.4c-3.5,4.3-6.2,9-8.1,14c-1.8,4.8-2.9,9.8-3.2,15.3h18.9c0.2-6.2,0.9-12,2-17.4

				c0.3-1.3,0.6-2.5,0.9-3.8C309.6,93.2,306.1,90.5,302.8,87.4z M363,83.3c-0.2-0.4-0.4-0.8-0.6-1.2c0,0,0-0.1-0.1-0.1

				c-4.1-7.7-8.8-12.3-14-14V96c6.5-0.4,12.5-1.9,18.1-4.4c-0.9-2.8-2.1-5.5-3.3-8.1C363.1,83.4,363,83.3,363,83.3z M373.3,87.7

				c2.6-1.7,5.1-3.7,7.5-6c-4.9-4.6-10.2-8.1-16-10.5c1.5,2.1,3,4.4,4.4,7.1c0.3,0.6,0.7,1.2,0.9,1.8

				C371.3,82.6,372.3,85.1,373.3,87.7z M368.5,99.1c-6.2,2.7-13,4.2-20.2,4.7v12.9h22.4c-0.2-5.6-0.8-10.9-1.8-15.9

				C368.7,100.2,368.6,99.6,368.5,99.1z M301.5,77.5c11.9-11.9,26.2-17.8,43-17.8c16.8,0,31.1,5.9,43,17.8

				c11.9,11.9,17.8,26.2,17.8,43c0,7.6-1.2,14.8-3.7,21.4h-8.4c0.3-0.8,0.6-1.5,0.9-2.3h0c1.8-4.8,2.9-9.9,3.2-15.2h-18.9

				c-0.2,6.1-0.9,11.9-2,17.4c0,0,0,0.1,0,0.1h-7.9c0.1-0.6,0.2-1.1,0.4-1.7c1-5,1.6-10.3,1.8-15.8h-22.4v17.5h-7.7l0-17.5h-22.4

				c0.2,5.6,0.8,10.9,1.8,15.8c0.1,0.6,0.2,1.1,0.4,1.7h-7.9c0,0,0-0.1,0-0.1c-1.1-5.5-1.8-11.3-2-17.4h-18.9

				c0.3,5.4,1.4,10.4,3.2,15.2h0c0.3,0.8,0.6,1.5,0.9,2.3h-8.3c-2.5-6.6-3.7-13.7-3.7-21.4C283.7,103.7,289.6,89.4,301.5,77.5z"/>

		</g>

		<g>

			<path class="st2" d="M391.6,73.4c-1-1-2-1.9-3-2.8c4.6-11.5,12.3-19.5,23.3-24.2c-3.6,6.9-3.9,15.2-0.8,24.6

				c3.7,11.1,2.6,20.5-3.3,28.2C404.7,89.7,399.3,81.1,391.6,73.4z"/>

		</g>

		<g>

			<path class="st2" d="M285.2,57.3l1.9-2.1c0.4-0.4,0.7-0.8,1.1-1.1c2.5-2.5,5.2-4.8,8.3-7.1c0.4-0.3,0.8-0.6,1.2-0.9

				c11.1-8.5,19.3-18.6,24.4-30.1c2.9,10.7,2.3,20.7-2,30.1c-0.6,1.3-1.3,2.7-2.1,4c0.9-1.4,1.9-2.7,2.9-4

				c5.5-6.7,12.7-12.3,21.8-16.8C353.5,24,360,14.4,362.5,0.6c5.7,17.6,4.4,33.9-3.7,48.8c11.7-12,25.5-18.9,41.4-20.8

				c-13,8.8-18.4,21.4-16.4,38c-10.6-7.9-22.7-12.1-36.3-12.7c-1,0-2-0.1-3-0.1c-0.1,0-0.1,0-0.2,0c-18.4,0-34,6.5-47,19.5

				c-7.7,7.7-13.1,16.3-16.3,25.8C274.8,82.4,276.2,68.4,285.2,57.3z"/>

		</g>

	</g>

</g>

<g>

	<g>

		<g>

			<path class="st2" d="M394.2,139c1.8-4.8,2.9-9.8,3.2-15.3h-18.9c-0.2,6.2-0.9,12-2,17.4c-0.3,1.3-0.6,2.5-0.9,3.8

				c3.7,2.2,7.2,4.9,10.5,8C389.5,148.7,392.2,144,394.2,139z M340.6,136.7v-12.9h-22.4c0.2,5.6,0.8,10.9,1.8,15.9

				c0.1,0.6,0.2,1.1,0.4,1.7C326.6,138.6,333.3,137.1,340.6,136.7z M325.9,157.1c0.2,0.4,0.4,0.8,0.6,1.2c0,0,0,0.1,0.1,0.1

				c4.1,7.7,8.8,12.3,14,14v-27.9c-6.5,0.4-12.5,1.9-18.1,4.4c0.9,2.8,2.1,5.5,3.3,8.1C325.8,157,325.8,157,325.9,157.1z

				 M315.6,152.7c-2.6,1.7-5.1,3.7-7.5,6c4.9,4.6,10.2,8.1,16,10.5c-1.5-2.1-3-4.4-4.4-7.1c-0.3-0.6-0.7-1.2-0.9-1.8

				C317.6,157.8,316.5,155.3,315.6,152.7z M313.3,145c-0.3-1.2-0.6-2.5-0.9-3.8c-1.1-5.4-1.8-11.2-2-17.4h-18.9

				c0.3,5.4,1.4,10.5,3.2,15.3c1.9,5,4.6,9.6,8.1,14C306.1,149.9,309.6,147.2,313.3,145z M363.1,156.9c1.3-2.6,2.4-5.2,3.3-8.1

				c-5.6-2.5-11.6-4-18.1-4.4v27.9c5.3-1.6,10-6.3,14-14c0,0,0-0.1,0.1-0.1c0.2-0.4,0.4-0.8,0.6-1.2C363,157,363.1,157,363.1,156.9z

				 M370.1,160.2c-0.3,0.6-0.6,1.2-0.9,1.8c-1.4,2.6-2.9,5-4.4,7.1c5.8-2.4,11.1-5.9,16-10.5c-2.4-2.2-4.9-4.2-7.5-6

				C372.3,155.3,371.3,157.8,370.1,160.2z M368.9,139.7c1-4.9,1.6-10.2,1.8-15.9h-22.4v12.9c7.2,0.4,14,2,20.2,4.7

				C368.6,140.8,368.7,140.2,368.9,139.7z M283.6,119.9c0-7.6,1.2-14.8,3.7-21.4h8.3c-0.3,0.8-0.6,1.5-0.9,2.3h0

				c-1.8,4.8-2.9,9.9-3.2,15.2h18.9c0.2-6.1,0.9-11.9,2-17.4c0,0,0-0.1,0-0.1h7.9c-0.1,0.6-0.2,1.1-0.4,1.7c-1,5-1.6,10.3-1.8,15.8

				h22.4l0-17.5h7.7V116h22.4c-0.2-5.6-0.8-10.9-1.8-15.8c-0.1-0.6-0.2-1.1-0.4-1.7h7.9c0,0,0,0.1,0,0.1c1.1,5.5,1.8,11.3,2,17.4

				h18.9c-0.3-5.4-1.4-10.4-3.2-15.2h0c-0.3-0.8-0.6-1.5-0.9-2.3h8.4c2.5,6.6,3.7,13.7,3.7,21.4c0,16.8-5.9,31.1-17.8,43

				c-11.9,11.9-26.2,17.8-43,17.8c-16.8,0-31.1-5.9-43-17.8C289.6,151,283.7,136.7,283.6,119.9z"/>

		</g>

	</g>

</g>

</svg>


