<svg xmlns="http://www.w3.org/2000/svg" xmlns:xlink="http://www.w3.org/1999/xlink" width="73px" height="72px">
	<path fill-rule="evenodd"  fill="#e9eff0"
	 d="M37.009,-6.013 C60.199,-6.007 78.993,12.803 78.987,36.005 C78.981,59.203 60.177,78.008 36.987,77.999 C13.797,77.997 -4.997,59.184 -4.991,35.982 C-4.988,24.843 -0.562,14.162 7.313,6.287 C15.182,-1.603 25.869,-6.030 37.009,-6.013 ZM37.008,38.713 C50.282,38.713 61.396,48.770 62.722,61.984 L62.855,61.852 C77.122,47.570 77.116,24.425 62.841,10.149 C48.566,-4.124 25.429,-4.116 11.162,10.163 C-3.100,24.440 -3.100,47.575 11.162,61.852 L11.294,61.984 C12.620,48.770 23.735,38.713 37.008,38.713 ZM37.008,6.411 C29.080,6.411 22.652,12.840 22.652,20.772 C22.652,28.703 29.080,35.135 37.008,35.135 C44.937,35.135 51.364,28.703 51.364,20.772 C51.409,12.840 45.020,6.374 37.091,6.329 C37.064,6.329 37.036,6.329 37.008,6.329 L37.008,6.411 Z"/>
</svg>