<svg xmlns="http://www.w3.org/2000/svg" width="24" height="24" viewBox="0 0 24 24">
    <path fill="#292627" d="M17.22 0c3.66 0 6.65 2.913 6.776 6.542L24 6.78v10.44c0 3.659-2.913 6.65-6.542 6.776L17.22 24H6.78C3.121 24 .13 21.086.004 17.457L0 17.22V6.78C0 3.12 2.914.13 6.543.004L6.78 0h10.44zm0 1.937H6.78c-2.598 0-4.725 2.057-4.838 4.627l-.005.216v10.44c0 2.598 2.057 4.725 4.628 4.838l.215.005h10.44c2.599 0 4.725-2.057 4.838-4.628l.005-.215V6.78c0-2.67-2.172-4.843-4.843-4.843zm-5.1 4.123c3.342 0 6.06 2.718 6.06 6.06 0 3.342-2.718 6.06-6.06 6.06-3.342 0-6.06-2.718-6.06-6.06 0-3.342 2.718-6.06 6.06-6.06zm0 1.903c-2.292 0-4.157 1.865-4.157 4.157s1.865 4.157 4.157 4.157 4.157-1.865 4.157-4.157-1.865-4.157-4.157-4.157zm5.454-4.327c1.004 0 1.818.814 1.818 1.818s-.814 1.818-1.818 1.818-1.818-.814-1.818-1.818.814-1.818 1.818-1.818z"/>
</svg>
