<?xml version="1.0" encoding="UTF-8"?>
<svg width="980px" height="980px" viewBox="0 0 980 980" version="1.1" xmlns="http://www.w3.org/2000/svg" xmlns:xlink="http://www.w3.org/1999/xlink">
    <title>new_tab</title>
    <g id="Light" stroke="none" stroke-width="1" fill="none" fill-rule="evenodd">
        <g id="new_tab" fill="#fff" fill-rule="nonzero">
            <g id="Group" transform="translate(489.995000, 489.995000) scale(-1, 1) rotate(-180.000000) translate(-489.995000, -489.995000) translate(0.000000, 0.000000)">
                <path d="M255.28,976.17 C251.46,974.26 248.35,972.35 248.11,972.11 C247.63,971.87 246.91,918.33 246.2,853.31 L245,734.99 L126.68,733.79 C61.66,733.07 8.12,732.36 7.88,731.88 C7.64,731.64 5.73,728.29 3.58,724.23 C0.48,718.02 0,676.19 0,365.7 L0,13.86 L6.93,6.93 L13.86,0 L365.7,0 C676.19,0 718.02,0.48 724.24,3.58 C728.3,5.73 731.65,7.64 731.89,7.88 C732.37,8.12 733.09,61.66 733.8,126.67 L735,244.99 L853.32,246.19 C918.33,246.91 971.87,247.62 972.11,248.1 C972.35,248.34 974.26,251.68 976.41,255.75 C979.52,261.96 979.99,303.79 979.99,614.29 L979.99,966.13 L973.06,973.06 L966.13,979.99 L613.81,979.99 C306.43,979.75 261.02,979.27 255.28,976.17 Z M939.37,613.09 L939.37,286.82 L613.1,286.82 L286.83,286.82 L286.83,613.09 L286.83,939.36 L613.1,939.36 L939.37,939.36 L939.37,613.09 Z M246.2,475.17 L246.2,257.18 L251.46,251.68 L256.48,246.18 L474.95,246.18 L693.18,246.18 L693.18,143.4 L693.18,40.62 L366.9,40.62 L40.63,40.62 L40.63,366.89 L40.63,693.16 L143.41,693.16 L246.2,693.16 L246.2,475.17 Z" id="Shape"/>
                <path d="M623.85,895.61 C611.42,889.4 609.03,872.9 619.07,862.86 C623.61,858.32 627.44,858.08 725.91,858.08 L828.21,858.08 L638.67,668.54 C458.21,488.08 449.37,478.76 449.37,470.63 C449.37,454.85 464.91,445.05 478.77,451.98 C481.64,453.42 568.17,538.75 671.18,641.53 L858.1,828.21 L858.1,725.91 C858.1,627.43 858.34,623.61 862.88,619.07 C872.92,609.03 889.41,611.42 895.63,623.85 C898.02,628.39 898.74,658.75 898.74,754.83 C898.74,890.36 898.74,889.88 885.59,895.85 C876.5,900.16 632.22,899.92 623.85,895.61 Z" id="Path"/>
            </g>
        </g>
    </g>
</svg>