<svg xmlns="http://www.w3.org/2000/svg" width="24" height="23" viewBox="0 0 24 23">
    <path fill="#292627" d="M23.53 16.802c-3.21-.528-4.655-3.814-4.714-3.954-.004-.009-.007-.018-.013-.027-.164-.333-.203-.607-.113-.816.176-.411.848-.624 1.292-.765.129-.04.25-.08.35-.118.439-.173.75-.36.958-.572.246-.254.294-.497.29-.654-.007-.384-.3-.726-.77-.893-.158-.064-.34-.099-.522-.099-.125 0-.31.017-.486.1-.375.175-.711.27-1 .284-.154-.007-.262-.04-.332-.072l.028-.463.005-.07c.103-1.624.23-3.644-.306-4.844-.368-.822-.861-1.529-1.469-2.102-.508-.48-1.1-.87-1.756-1.158C13.83.075 12.765 0 12.23 0h-.06l-.413.005c-.532 0-1.599.075-2.743.579-.656.288-1.244.676-1.75 1.156-.605.573-1.097 1.278-1.463 2.097-.537 1.199-.41 3.22-.308 4.842v.003l.033.533c-.078.034-.205.073-.393.073-.303 0-.663-.096-1.07-.286-.12-.056-.256-.084-.406-.084-.241 0-.498.07-.718.2-.28.164-.46.394-.509.65-.031.168-.03.503.342.842.206.186.506.359.894.512.102.04.224.078.351.118.444.141 1.118.354 1.293.765.089.209.05.483-.114.816l-.012.027c-.042.096-.424.959-1.209 1.87-.445.517-.936.95-1.458 1.286-.637.411-1.326.678-2.048.797-.283.046-.486.298-.47.585.005.082.025.165.06.244v.002c.115.268.38.495.812.694.529.245 1.318.45 2.348.61.053.1.107.347.144.517.04.18.08.366.138.562.063.213.225.468.644.468.159 0 .34-.036.552-.076.309-.06.732-.143 1.258-.143.293 0 .596.026.9.077.588.097 1.095.454 1.682.868.858.607 1.83 1.292 3.315 1.292.04 0 .081-.001.121-.004.049.003.11.004.173.004 1.485 0 2.457-.685 3.315-1.29l.002-.002c.586-.412 1.093-.769 1.681-.867.305-.05.608-.076.9-.076.504 0 .903.064 1.259.133.232.045.412.068.552.068h.027c.306 0 .53-.168.616-.46.057-.194.098-.374.138-.559.035-.159.092-.414.143-.513 1.03-.162 1.82-.366 2.348-.61.43-.2.696-.426.811-.693.035-.08.056-.162.06-.248.017-.283-.186-.537-.47-.582z"/>
</svg>
