<svg xmlns="http://www.w3.org/2000/svg" width="24" height="19" viewBox="0 0 24 19">
    <path fill="#292627" d="M21.547 4.718c.008.204.012.412.012.621 0 6.32-4.952 13.608-14.01 13.608-2.781 0-5.37-.788-7.549-2.15.387.046.778.07 1.174.07 2.31 0 4.43-.764 6.117-2.048-2.154-.041-3.971-1.422-4.598-3.324.299.057.605.086.925.086.446 0 .884-.057 1.296-.168-2.251-.437-3.95-2.37-3.95-4.688 0-.02 0-.04.004-.062.66.36 1.422.573 2.23.597-1.321-.854-2.193-2.321-2.193-3.981 0-.875.245-1.697.666-2.404 2.427 2.895 6.059 4.8 10.148 5-.084-.352-.126-.716-.126-1.092 0-2.64 2.204-4.783 4.923-4.783 1.418 0 2.697.58 3.593 1.508 1.123-.212 2.18-.61 3.131-1.16-.37 1.12-1.15 2.056-2.167 2.648.997-.114 1.948-.371 2.827-.751-.656.956-1.494 1.797-2.453 2.473"/>
</svg>
